<?xml version="1.0" encoding="iso-8859-1"?>
<!-- Generator: Adobe Illustrator 19.0.0, SVG Export Plug-In . SVG Version: 6.00 Build 0)  -->
<svg version="1.1" id="Layer_1" xmlns="http://www.w3.org/2000/svg" xmlns:xlink="http://www.w3.org/1999/xlink" x="0px" y="0px"
	 viewBox="0 0 503.467 503.467" style="enable-background:new 0 0 503.467 503.467;" xml:space="preserve">
<g transform="translate(1 1)">
	<path style="fill:#F2EDDA;" d="M498.2,37.4v324.267H327.533h-51.2V395.8c0,20.48,14.507,34.133,34.133,34.133h17.92h0.853
		c7.68,39.253,42.667,68.267,83.627,68.267H71.533V71.533V37.4c0-18.773,16.213-34.133,34.133-34.133h358.4
		C482.84,3.267,498.2,18.627,498.2,37.4L498.2,37.4z"/>
	<path style="fill:#AAB1BA;" d="M71.533,71.533V498.2c-42.667,0-68.267-25.6-68.267-68.267V105.667
		c0-18.773,15.36-34.133,34.133-34.133H71.533z"/>
	<path style="fill:#FF7474;" d="M498.2,361.667v51.2c0,46.933-38.4,85.333-85.333,85.333c-40.96,0-75.947-29.013-83.627-68.267
		c-0.853-5.12-1.707-11.093-1.707-17.067v-51.2H498.2z"/>
	<path style="fill:#F2EDDA;" d="M328.387,429.933h-17.92c-19.627,0-34.133-13.653-34.133-34.133v-34.133h51.2v51.2
		C327.533,418.84,328.387,424.813,328.387,429.933L328.387,429.933z"/>
	<polygon style="fill:#ECF4F7;" points="156.867,259.267 156.867,139.8 412.867,139.8 412.867,259.267 	"/>
	<path style="fill:#FFE079;" d="M199.533,173.933c5.12,0,8.533,4.267,8.533,8.533S204.653,191,199.533,191S191,186.733,191,182.467
		S194.413,173.933,199.533,173.933"/>
	<polygon style="fill:#50DD8E;" points="208.067,259.267 267.8,199.533 293.4,225.133 336.067,182.467 412.867,259.267 	"/>
</g>
<path style="fill:#51565F;" d="M413.867,503.467c-41.813,0-77.653-29.013-87.04-68.267h-15.36c-22.187,0-38.4-16.213-38.4-38.4
	v-34.133c0-2.56,1.707-4.267,4.267-4.267H499.2c2.56,0,4.267,1.707,4.267,4.267v51.2C503.467,463.36,463.36,503.467,413.867,503.467
	z M333.653,426.667c5.973,38.4,40.107,68.267,80.213,68.267c44.373,0,81.067-36.693,81.067-81.067v-46.933H332.8L333.653,426.667z
	 M281.6,366.933V396.8c0,17.92,11.947,29.867,29.867,29.867h13.653c-0.853-4.267-0.853-8.533-0.853-12.8v-46.933H281.6z
	 M328.533,503.467h-256C28.16,503.467,0,475.307,0,430.933V106.667c0-21.333,17.067-38.4,38.4-38.4c2.56,0,4.267,1.707,4.267,4.267
	c0,2.56-1.707,4.267-4.267,4.267c-16.213,0-29.867,13.653-29.867,29.867v324.267c0,40.107,23.893,64,64,64h256
	c2.56,0,4.267,1.707,4.267,4.267C332.8,501.76,331.093,503.467,328.533,503.467z M72.533,452.267c-2.56,0-4.267-1.707-4.267-4.267
	V38.4c0-20.48,17.92-38.4,38.4-38.4h358.4c21.333,0,38.4,17.067,38.4,38.4v290.133c0,2.56-1.707,4.267-4.267,4.267
	c-2.56,0-4.267-1.707-4.267-4.267V38.4c0-16.213-13.653-29.867-29.867-29.867h-358.4C90.453,8.533,76.8,22.187,76.8,38.4V448
	C76.8,450.56,75.093,452.267,72.533,452.267z M209.067,418.133h-51.2c-2.56,0-4.267-1.707-4.267-4.267
	c0-2.56,1.707-4.267,4.267-4.267h51.2c2.56,0,4.267,1.707,4.267,4.267C213.333,416.427,211.627,418.133,209.067,418.133z
	 M38.4,418.133c-2.56,0-4.267-1.707-4.267-4.267V123.733c0-2.56,1.707-4.267,4.267-4.267s4.267,1.707,4.267,4.267v290.133
	C42.667,416.427,40.96,418.133,38.4,418.133z M209.067,366.933h-51.2c-2.56,0-4.267-1.707-4.267-4.267s1.707-4.267,4.267-4.267h51.2
	c2.56,0,4.267,1.707,4.267,4.267S211.627,366.933,209.067,366.933z M448,332.8c-2.56,0-4.267-1.707-4.267-4.267v-17.067
	c0-2.56,1.707-4.267,4.267-4.267s4.267,1.707,4.267,4.267v17.067C452.267,331.093,450.56,332.8,448,332.8z M413.867,332.8
	c-2.56,0-4.267-1.707-4.267-4.267V294.4c0-2.56,1.707-4.267,4.267-4.267s4.267,1.707,4.267,4.267v34.133
	C418.133,331.093,416.427,332.8,413.867,332.8z M379.733,332.8c-2.56,0-4.267-1.707-4.267-4.267v-17.067
	c0-2.56,1.707-4.267,4.267-4.267c2.56,0,4.267,1.707,4.267,4.267v17.067C384,331.093,382.293,332.8,379.733,332.8z M243.2,315.733
	h-85.333c-2.56,0-4.267-1.707-4.267-4.267c0-2.56,1.707-4.267,4.267-4.267H243.2c2.56,0,4.267,1.707,4.267,4.267
	C247.467,314.027,245.76,315.733,243.2,315.733z M413.867,264.533h-153.6c-2.56,0-4.267-1.707-4.267-4.267
	c0-2.56,1.707-4.267,4.267-4.267H409.6V145.067H162.133V256h45.227l58.88-58.88c1.707-1.707,4.267-1.707,5.973,0l22.187,22.187
	l39.253-39.253c1.707-1.707,4.267-1.707,5.973,0l42.667,42.667c1.707,1.707,1.707,4.267,0,5.973c-1.707,1.707-4.267,1.707-5.973,0
	l-39.253-39.253l-39.253,39.253c-1.707,1.707-4.267,1.707-5.973,0l-22.187-22.187l-56.32,56.32
	c-0.853,0.853-1.707,0.853-3.413,0.853h-51.2c-2.56,0-4.267-1.707-4.267-4.267V139.947c0-2.56,1.707-4.267,4.267-4.267h256
	c2.56,0,4.267,1.707,4.267,4.267v119.467C418.133,262.827,416.427,264.533,413.867,264.533z M200.533,196.267
	c-6.827,0-12.8-5.973-12.8-12.8s5.973-12.8,12.8-12.8s12.8,5.973,12.8,12.8S207.36,196.267,200.533,196.267z M200.533,179.2
	c-2.56,0-4.267,1.707-4.267,4.267s1.707,4.267,4.267,4.267s4.267-1.707,4.267-4.267S203.093,179.2,200.533,179.2z M413.867,93.867
	h-34.133c-2.56,0-4.267-1.707-4.267-4.267c0-2.56,1.707-4.267,4.267-4.267h34.133c2.56,0,4.267,1.707,4.267,4.267
	C418.133,92.16,416.427,93.867,413.867,93.867z M294.4,93.867H157.867c-2.56,0-4.267-1.707-4.267-4.267
	c0-2.56,1.707-4.267,4.267-4.267H294.4c2.56,0,4.267,1.707,4.267,4.267C298.667,92.16,296.96,93.867,294.4,93.867z"/>
<g>
</g>
<g>
</g>
<g>
</g>
<g>
</g>
<g>
</g>
<g>
</g>
<g>
</g>
<g>
</g>
<g>
</g>
<g>
</g>
<g>
</g>
<g>
</g>
<g>
</g>
<g>
</g>
<g>
</g>
</svg>
